:SAMPLES-PER-SECOND 30
:FULLY-SPECIFIED
:DEGREES
153
root  6.42264 19.2834 -16.1403 -130.384 2.82062 177.731
RightUpLeg  -45.4805 -5.18062 8.33186
RightLeg  108.304 19.3969 -9.76669
RightFoot  -27.0463 0.667335 4.76468
RightToes  -5.82073e-011 -3.18055e-015 -2.98177e-016
Spine  43.7951 4.28692 -4.81343
Spine1  -9.51762 1.91764 2.23564
HEad  -37.9617 -8.42082 1.75046
LeftShoulder1  -3.88251e-019 9.70628e-020 -3.87848e-018
LeftArm  -0.80979 -28.0023 -74.251
LeftForeArm  27.0593 -5.30021 -8.90411
LeftHand  -12.4928 -12.3444 72.6326
RightShoulder  4.80519 9.71986 22.4957
RightArm  -3.38225 -4.27121 57.3147
RightForeArm  13.932 37.5789 -21.6973
RightHand  -10.8001 11.1253 -66.9002
LeftUpLeg  -60.1002 3.5599 -7.32347
LeftLeg  125.196 -24.0169 13.9955
LeftFoot  -37.0436 -1.02918 -4.37405
LeftToes  -3.44176e-011 4.05998e-011 -5.21293e-012
154
root  6.31738 19.2486 -16.7169 -132.644 4.05609 178.197
RightUpLeg  -41.2355 -4.75334 6.70943
RightLeg  106.944 19.0109 -9.38713
RightFoot  -27.1961 0.673793 4.76004
RightToes  -5.82073e-011 -3.18055e-015 -2.98177e-016
Spine  45.8904 4.23746 -4.99072
Spine1  -10.3112 1.85296 -0.249484
HEad  -37.0619 -8.01711 2.02721
LeftShoulder1  -3.88251e-019 9.70628e-020 -3.87848e-018
LeftArm  -0.520483 -26.7289 -73.6883
LeftForeArm  27.7787 -5.20521 -9.51431
LeftHand  -12.7274 -12.3612 73.6079
RightShoulder  4.33752 9.34673 20.4319
RightArm  -5.46917 1.24319 59.1784
RightForeArm  11.9256 36.9809 -21.1702
RightHand  -9.94472 10.5611 -64.4044
LeftUpLeg  -61.8382 3.56428 -8.84977
LeftLeg  127.621 -22.8811 11.6855
LeftFoot  -38.3995 -1.14694 -4.63049
LeftToes  -3.44176e-011 4.05998e-011 -5.21293e-012
155
root  6.16304 19.1724 -17.3322 -134.211 4.59373 178.825
RightUpLeg  -37.4698 -4.60091 5.79249
RightLeg  105.172 18.6498 -9.19719
RightFoot  -27.4021 0.734608 5.17263
RightToes  -5.82073e-011 -3.18055e-015 -2.98177e-016
Spine  47.2936 3.50888 -3.74724
Spine1  -11.0776 1.73388 -3.46219
HEad  -36.416 -7.83462 2.38819
LeftShoulder1  -3.88251e-019 9.70628e-020 -3.87848e-018
LeftArm  -0.315253 -25.1155 -73.5816
LeftForeArm  28.7022 -5.10483 -9.94493
LeftHand  -12.8508 -12.2768 74.4134
RightShoulder  3.8847 8.91846 18.4409
RightArm  -7.90919 7.39818 60.5806
RightForeArm  10.7627 33.9368 -19.0476
RightHand  -9.30127 9.9478 -62.9634
LeftUpLeg  -64.0496 3.13495 -9.89134
LeftLeg  128.564 -22.4755 10.8981
LeftFoot  -35.6903 -1.1154 -5.10736
LeftToes  -3.44176e-011 4.05998e-011 -5.21293e-012
156
root  6.04184 19.1181 -18.021 -134.95 5.27197 179.778
RightUpLeg  -34.4841 -3.94125 5.29188
RightLeg  102.94 18.2867 -9.17658
RightFoot  -27.3796 0.842774 6.05284
RightToes  -5.82073e-011 -3.18055e-015 -2.98177e-016
Spine  47.7738 2.79259 -2.43868
Spine1  -11.4203 1.7708 -6.96907
HEad  -35.8954 -7.6978 2.80982
LeftShoulder1  -3.88251e-019 9.70628e-020 -3.87848e-018
LeftArm  -0.254082 -23.3415 -73.4875
LeftForeArm  29.8074 -4.85625 -10.0765
LeftHand  -13.0417 -12.2834 75.2121
RightShoulder  3.50999 8.52213 16.7719
RightArm  -10.7507 13.6234 61.8049
RightForeArm  10.6346 28.8847 -15.9285
RightHand  -8.49754 9.12905 -61.1068
LeftUpLeg  -66.0559 3.38947 -10.9332
LeftLeg  128.227 -23.5855 12.2441
LeftFoot  -27.8978 -0.985212 -7.13919
LeftToes  -3.44176e-011 4.05998e-011 -5.21293e-012
157
root  5.98782 19.0501 -18.7474 -134.789 6.41849 -178.904
RightUpLeg  -32.4791 -2.57512 5.12284
RightLeg  100.546 17.9602 -9.35718
RightFoot  -27.1577 0.965295 7.15464
RightToes  -5.82073e-011 -3.18055e-015 -2.98177e-016
Spine  47.304 2.62984 -1.74592
Spine1  -11.3933 2.1526 -9.84284
HEad  -35.4545 -7.58674 3.37012
LeftShoulder1  -3.88251e-019 9.70628e-020 -3.87848e-018
LeftArm  -0.380476 -21.4528 -73.1043
LeftForeArm  30.9952 -4.65203 -10.0957
LeftHand  -13.4159 -12.4166 76.3665
RightShoulder  3.25749 8.30887 15.5106
RightArm  -12.7637 19.308 63.2846
RightForeArm  9.31063 22.3907 -12.9523
RightHand  -7.29815 7.93244 -57.813
LeftUpLeg  -67.3563 4.56835 -11.6259
LeftLeg  127.267 -25.1473 14.3572
LeftFoot  -18.3772 -0.524029 -10.196
LeftToes  -3.44176e-011 4.05998e-011 -5.21293e-012
158
root  5.94896 18.91 -19.4649 -133.615 7.56847 -177.173
RightUpLeg  -31.5348 -1.0004 5.44144
RightLeg  98.1915 17.6868 -9.782
RightFoot  -26.9145 0.98886 7.48332
RightToes  -5.82073e-011 -3.18055e-015 -2.98177e-016
Spine  45.9051 2.77056 -0.691002
Spine1  -11.158 3.01324 -12.2974
HEad  -35.4296 -7.73632 4.08914
LeftShoulder1  -3.88251e-019 9.70628e-020 -3.87848e-018
LeftArm  -0.515852 -19.4936 -72.9456
LeftForeArm  32.1413 -4.70633 -10.2326
LeftHand  -13.8261 -12.5523 77.6283
RightShoulder  3.16043 8.34116 14.8351
RightArm  -8.59778 23.8462 64.7734
RightForeArm  1.76535 14.9189 -11.7793
RightHand  -6.39234 6.75541 -55.9363
LeftUpLeg  -67.7574 6.09991 -11.4279
LeftLeg  126.375 -25.7881 15.4781
LeftFoot  -12.6462 0.00404283 -12.4165
LeftToes  -3.44176e-011 4.05998e-011 -5.21293e-012
159
root  5.86615 18.7464 -20.189 -131.649 8.07866 -175.712
RightUpLeg  -31.3424 -0.188413 5.85278
RightLeg  95.7322 17.3705 -10.2155
RightFoot  -26.8248 0.900977 6.8048
RightToes  -5.82073e-011 -3.18055e-015 -2.98177e-016
Spine  43.9522 2.40493 1.41136
Spine1  -10.796 3.79642 -15.105
HEad  -35.7963 -7.75956 4.85746
LeftShoulder1  -3.88251e-019 9.70628e-020 -3.87848e-018
LeftArm  -0.702992 -17.3699 -73.2233
LeftForeArm  33.2763 -4.69955 -10.3581
LeftHand  -14.152 -12.6192 78.7317
RightShoulder  3.08515 8.37789 14.2939
RightArm  -1.09132 26.2769 65.8496
RightForeArm  -7.82709 8.99217 -10.2702
RightHand  -6.59549 6.3235 -59.0476
LeftUpLeg  -67.6647 7.00731 -11.0144
LeftLeg  125.4 -25.5595 15.6936
LeftFoot  -11.4113 0.165294 -13.4465
LeftToes  -3.44176e-011 4.05998e-011 -5.21293e-012
160
root  5.78808 18.6432 -20.9621 -129.476 7.96295 -175.752
RightUpLeg  -31.3301 -0.778125 5.51246
RightLeg  92.9856 16.9408 -10.4117
RightFoot  -26.9452 0.843813 6.26568
RightToes  -5.82073e-011 -3.18055e-015 -2.98177e-016
Spine  41.8863 1.4011 2.88939
Spine1  -10.4886 3.51845 -16.9871
HEad  -35.7362 -6.69917 5.37583
LeftShoulder1  -3.88251e-019 9.70628e-020 -3.87848e-018
LeftArm  -1.5849 -14.6431 -73.0089
LeftForeArm  34.498 -4.46843 -9.99422
LeftHand  -14.4283 -12.6053 79.8766
RightShoulder  2.84471 8.15547 13.0641
RightArm  1.37856 25.7954 66.9771
RightForeArm  -10.9777 7.22814 -7.74093
RightHand  -7.77565 6.78592 -65.514
LeftUpLeg  -67.5775 6.64248 -11.4467
LeftLeg  123.613 -25.1542 16.1078
LeftFoot  -10.755 0.274939 -14.6922
LeftToes  -3.44176e-011 4.05998e-011 -5.21293e-012
161
root  5.80859 18.6091 -21.804 -127.416 7.60585 -177.664
RightUpLeg  -31.1854 -2.57817 4.27112
RightLeg  89.832 16.4214 -10.5471
RightFoot  -26.8715 0.849089 6.34858
RightToes  -5.82073e-011 -3.18055e-015 -2.98177e-016
Spine  39.6843 0.408008 1.72917
Spine1  -10.2277 1.9578 -15.516
HEad  -34.8011 -4.36365 5.43684
LeftShoulder1  -3.88251e-019 9.70628e-020 -3.87848e-018
LeftArm  -3.40418 -10.7223 -71.5398
LeftForeArm  35.4224 -5.17928 -8.93132
LeftHand  -14.5403 -12.5161 80.6109
RightShoulder  2.53678 7.80881 11.5321
RightArm  2.23285 23.3242 69.2616
RightForeArm  -11.0009 8.23018 -6.7793
RightHand  -8.91375 7.46004 -70.0171
LeftUpLeg  -67.4336 5.05933 -12.7382
LeftLeg  121.083 -24.5747 16.6924
LeftFoot  -9.02149 0.585289 -16.9774
LeftToes  -3.44176e-011 4.05998e-011 -5.21293e-012
162
root  5.86931 18.5574 -22.6826 -125.238 6.53947 179.527
RightUpLeg  -30.9954 -5.35946 3.22085
RightLeg  86.3645 15.8401 -10.628
RightFoot  -26.1487 0.771791 6.03895
RightToes  -5.82073e-011 -3.18055e-015 -2.98177e-016
Spine  36.7854 -0.511988 -0.516262
Spine1  -9.45542 -0.103256 -10.983
HEad  -33.7948 -1.83416 5.26223
LeftShoulder1  -3.88251e-019 9.70628e-020 -3.87848e-018
LeftArm  -5.07112 -5.66365 -69.6962
LeftForeArm  35.1729 -8.2694 -7.68742
LeftHand  -14.1762 -12.4783 79.2762
RightShoulder  2.48812 7.76411 11.2641
RightArm  2.39393 21.028 71.6588
RightForeArm  -8.77851 10.0424 -6.96809
RightHand  -9.34059 7.86154 -70.8584
LeftUpLeg  -67.3183 2.46836 -13.7316
LeftLeg  118.572 -23.7753 16.9745
LeftFoot  -7.72683 0.884402 -19.1769
LeftToes  -3.44176e-011 4.05998e-011 -5.21293e-012
163
root  5.80752 18.4514 -23.5386 -122.91 4.25017 177.254
RightUpLeg  -30.8107 -8.60244 3.37765
RightLeg  83.0771 15.3114 -10.0299
RightFoot  -24.7058 0.59578 5.11198
RightToes  -5.82073e-011 -3.18055e-015 -2.98177e-016
Spine  33.0869 -1.77353 -0.323893
Spine1  -7.98941 -1.71339 -6.65042
HEad  -33.5028 -0.190846 5.27106
LeftShoulder1  -3.88251e-019 9.70628e-020 -3.87848e-018
LeftArm  -4.86616 -0.414869 -68.9137
LeftForeArm  32.9483 -13.1545 -6.79377
LeftHand  -13.2654 -12.6474 74.978
RightShoulder  2.74777 8.05083 12.5828
RightArm  2.78203 19.7158 72.5208
RightForeArm  -5.73584 11.1844 -6.97381
RightHand  -9.65441 8.24063 -71.119
LeftUpLeg  -67.3661 -0.515474 -13.4145
LeftLeg  116.517 -23.0489 17.0748
LeftFoot  -7.46479 0.987308 -20.2833
LeftToes  -3.44176e-011 4.05998e-011 -5.21293e-012
164
root  5.62462 18.4153 -24.3558 -121.597 2.23639 176.149
RightUpLeg  -30.0869 -10.5813 3.56939
RightLeg  80.7407 15.0843 -8.30495
RightFoot  -22.2729 0.448784 4.79849
RightToes  -5.82073e-011 -3.18055e-015 -2.98177e-016
Spine  30.3887 -2.7231 1.82605
Spine1  -6.84113 -2.37927 -4.17524
HEad  -33.512 0.639283 5.52002
LeftShoulder1  -3.88251e-019 9.70628e-020 -3.87848e-018
LeftArm  -1.04166 4.03737 -69.32
LeftForeArm  27.796 -17.7627 -5.65875
LeftHand  -12.243 -12.9933 69.535
RightShoulder  3.04995 8.28516 14.2103
RightArm  3.38146 18.7979 72.0474
RightForeArm  -2.74752 11.2983 -6.48016
RightHand  -10.3877 8.86959 -72.6757
LeftUpLeg  -66.2782 -2.39286 -12.6264
LeftLeg  114.402 -22.3924 17.2901
LeftFoot  -7.12292 1.09003 -21.0108
LeftToes  -3.44176e-011 4.05998e-011 -5.21293e-012
165
root  5.41675 18.4966 -25.1161 -121.25 1.38708 175.625
RightUpLeg  -29.6693 -10.6149 2.87671
RightLeg  80.0225 15.2387 -5.94328
RightFoot  -18.1454 0.272228 4.99792
RightToes  -5.82073e-011 -3.18055e-015 -2.98177e-016
Spine  29.4003 -3.0339 3.45228
Spine1  -6.72692 -2.5011 -2.39383
HEad  -33.2008 1.25034 5.66575
LeftShoulder1  -3.88251e-019 9.70628e-020 -3.87848e-018
LeftArm  4.30391 7.2006 -70.1475
LeftForeArm  22.1502 -20.7359 -3.64559
LeftHand  -11.754 -13.4271 66.0918
RightShoulder  3.22219 8.38051 15.1698
RightArm  3.55368 17.6471 71.3015
RightForeArm  0.0310474 10.9348 -5.94361
RightHand  -11.1445 9.51274 -74.1583
LeftUpLeg  -64.1981 -3.3496 -12.3518
LeftLeg  112.008 -21.6237 17.4605
LeftFoot  -6.26079 1.31569 -22.0369
LeftToes  -3.44176e-011 4.05998e-011 -5.21293e-012
